<svg id="_ÎÓÈ_1" data-name="—ÎÓÈ_1" xmlns="http://www.w3.org/2000/svg" xmlns:xlink="http://www.w3.org/1999/xlink" width="1168.77" height="221.01" viewBox="0 0 1168.77 221.01">
  <defs>
    <style>
      .cls-1 {
        fill: none;
      }

      .cls-2 {
        fill: #fff;
      }

      .cls-3 {
        clip-path: url(#clip-path);
      }

      .cls-4 {
        fill: #231f20;
      }

      .cls-5 {
        fill: #ec1c24;
      }
    </style>
    <clipPath id="clip-path">
      <rect class="cls-1" width="1168.77" height="221.01"/>
    </clipPath>
  </defs>
  <g id="logo">
    <g>
      <rect class="cls-2" x="455.6" y="46.79" width="128.86" height="128.86"/>
      <g class="cls-3">
        <path class="cls-4" d="M370.32,180.56H345.89v-11.4c0-17.27-9.25-26.77-26.06-26.77-17,0-28.48,11.61-28.48,28.88,0,9.29-2.86,9.29-4.75,9.29H279V142.39H259.89l0,2.83c.09,8.13.27,27.93.11,35.34h-.84c-7,0-8.28-1.26-8.28-8.38V145.71H232.64v26.87c0,8.78-2.59,8.78-4.66,8.78-2.27,0-4.85,0-4.85-8.88V149.74H204.24v21c0,9.79-2.36,9.79-6.27,9.79H190.1V143.7H171.2v36.86H156.08l-1.71,0a26.76,26.76,0,0,0,2.69-11.94c0-16.68-9.57-26.26-26.26-26.26-16.45,0-28.38,11.72-28.38,27.88a25.71,25.71,0,0,0,2,10.3H93.92V143.7H75v36.86H58.57V120H39.68v67.16c0,16.63-6.86,16.63-9.78,16.63-2.73,0-11,0-11-16.63,0-6,1-10.05,2.72-16.07l1-3.55H3.08l-.56,2.05A72.41,72.41,0,0,0,0,188.39c0,26,15.65,31.4,28.78,31.4,16,0,25.91-8,28.86-23.16H199.06v-.08c5.34-.21,9.43-1.74,12.12-4.69,3.1,3.62,8.16,5.67,14.38,5.67s11.3-2.16,14.62-6c4.11,4.4,10.68,5.06,16.3,5.06h32.41v-.19a16.26,16.26,0,0,0,10.75-5.61c4.19,4,10.71,5.8,20.48,5.8h69.09V120H370.32Zm-51.4-22.1c4.35,0,8.38,1.48,8.38,12.21v9.89h-5.86c-9.53,0-11.4-3.85-11.4-10.5,0-2.71.64-11.6,8.88-11.6m-189,0c4.05,0,8.18,1.3,8.18,10.9,0,7.12-3,11.2-8.38,11.2-3.9,0-8.38-1.3-8.38-11.4,0-7.89,4.43-10.7,8.58-10.7"/>
        <rect class="cls-4" x="400.73" y="120.03" width="18.9" height="76.6"/>
        <rect class="cls-4" x="181.98" y="120.11" width="18.25" height="18.25"/>
        <rect class="cls-4" x="159.82" y="120.11" width="18.26" height="18.25"/>
        <rect class="cls-4" x="132.4" y="120.11" width="18.25" height="18.25"/>
        <rect class="cls-4" x="110.25" y="120.11" width="18.25" height="18.25"/>
        <rect class="cls-4" x="68.52" y="202.75" width="18.25" height="18.26"/>
        <path class="cls-4" d="M371.42,89.87H344.89V56.16H326V89.87H309.27V77.66c0-16.5-9.31-26-25.56-26-13.8,0-24,6.92-27.7,18.64h-.09c-19.35,0-21.84,14.46-21.84,27l-.41,34.76h18.4l.3-35.74c0-9.5.27-10,2.74-10,2.42,13,12.26,19.53,29.31,19.53h105.9V56.16h-18.9ZM282.71,67.78c3.71,0,8,1.3,8,11.49v10.6h-4.85c-8.75,0-12.31-3.27-12.31-11.3,0-5.22,2.42-10.79,9.19-10.79"/>
        <path class="cls-4" d="M416.73,15.41c-5.76,0-6.74-.94-6.74-3.07a.68.68,0,0,1,.25-.58c.33-.3,2.38-1.84,10.33-1.26l3,.2V1.19l-2-.57A31.22,31.22,0,0,0,414.81,0c-12.55,0-17,7.91-17,14.69,0,.24,0,.48,0,.73h-4.16V28h31.59V15.41Z"/>
        <rect class="cls-4" x="400.73" y="31.06" width="18.89" height="74.89"/>
        <rect class="cls-4" x="371.59" y="30.5" width="18.26" height="18.26"/>
        <rect class="cls-4" x="336.85" y="30.5" width="18.25" height="18.26"/>
        <rect class="cls-4" x="314.69" y="30.5" width="18.26" height="18.26"/>
        <path d="M1074.66,76.77a.7.7,0,0,0,1,0l2.4-2.36a.74.74,0,0,0,.2-.47.73.73,0,0,0-.21-.49l-2.39-2.34v0a.69.69,0,0,0-.48-.19.7.7,0,0,0-.49.2l-2.38,2.35a.65.65,0,0,0-.21.49.67.67,0,0,0,.2.48Z"/>
        <path d="M1078.65,82a.7.7,0,0,0,.48.2.69.69,0,0,0,.49-.2l2.4-2.37a.67.67,0,0,0,.19-.47.7.7,0,0,0-.2-.48l-2.39-2.35h0a.64.64,0,0,0-.48-.2.61.61,0,0,0-.48.21l-2.4,2.35a.68.68,0,0,0-.2.48.7.7,0,0,0,.2.48Z"/>
        <path d="M1070.67,82a.7.7,0,0,0,.48.2.72.72,0,0,0,.49-.2l2.4-2.37a.71.71,0,0,0,.19-.47.7.7,0,0,0-.2-.48l-2.39-2.35h0a.64.64,0,0,0-.48-.2.65.65,0,0,0-.49.21l-2.38,2.35a.61.61,0,0,0-.21.48.63.63,0,0,0,.21.48Z"/>
        <path d="M880.16,67.34a.7.7,0,0,0,.48.2.77.77,0,0,0,.49-.2L883.52,65a.67.67,0,0,0,.2-.47.7.7,0,0,0-.2-.48l-2.39-2.35v0a.66.66,0,0,0-.48-.18.65.65,0,0,0-.49.2L877.77,64a.59.59,0,0,0-.2.48.62.62,0,0,0,.2.48Z"/>
        <path d="M880.27,74.27a.69.69,0,0,0,.48.19.7.7,0,0,0,.49-.2l2.39-2.36a.65.65,0,0,0,.2-.47.68.68,0,0,0-.2-.48l-2.38-2.35h0a.63.63,0,0,0-.48-.21.65.65,0,0,0-.48.21L877.88,71a.65.65,0,0,0-.21.48.7.7,0,0,0,.2.48Z"/>
        <path d="M1059.44,89.52a2.53,2.53,0,0,0,1.93-1.19,39.9,39.9,0,0,0,2.28-4.38,1.06,1.06,0,0,1,2,0,36.72,36.72,0,0,0,2.28,4.38,2.16,2.16,0,0,0,3.86,0,38.24,38.24,0,0,0,2.28-4.38,1.2,1.2,0,0,1,1-.8,1.21,1.21,0,0,1,1,.8,38.24,38.24,0,0,0,2.28,4.38,2.51,2.51,0,0,0,1.93,1.19h0a2.54,2.54,0,0,0,1.93-1.19,39.9,39.9,0,0,0,2.28-4.38,1.2,1.2,0,0,1,1-.8,1.22,1.22,0,0,1,1,.8,38.22,38.22,0,0,0,2.27,4.38,2.53,2.53,0,0,0,1.94,1.19h53.41c5.84,0,6.3-1.75,6-8.3s-2.83-20.2.6-23.59,3.45-2.87,3.45-2.09.75,28.48.62,33-2.09,8.45-8.49,8.45l-133.29-.06c-4.67,0-6.68,1.84-9.62,7.24s-13.79,18.45-41.86,15c11.64-.62,30.7-7.47,36.3-15.93s2.43-10.54-.37-14.13c-1.41-2-.43-3,0-3.92s.8-1.83,2-.32,2.14,2.78,3,3.73.93,1,3.51,1Z"/>
        <path d="M1161.35,81.22c-.3-6.55-2.83-20.2.6-23.6s3.45-2.86,3.45-2.09.62,28.48.62,33c0,5.54-.11,7.67-2,8.13-1.35.33-1.7-.49-1.8-2.82s-.88-12.61-.88-12.61"/>
        <path d="M884.81,83.88v-1.1c0-.68-.15-1.21-1.1-1.21s-2.29.72-4.07,2.42,1.69,1.62,3,1.62,2.19-.38,2.19-1.69Zm-6.62,6.61c-3.57,0-5.48-.21-5.48-2.35,0-6.9,8.86-10.24,10.3-10.81s1.84-.91,1.84-2,.94-1.91,2.25-3.71,2.17-.93,2.17,1.37V83.38c0,5.22,1.86,6.14,6.82,6.14h84.12c4.67,0,4.67-3.59-.35-3.59H969.22c-5.89,0-8.1-2.34-8.1-4.64s1.51-4.18,7.33-8.6,17.22-13.22,21.37-16.31,4.55-.29,4.55,1.68.22,8-1.48,4.91-3.06-2.13-6.23.25-13,9.85-15.47,11.74-3.27,3-3.27,4.1,2.29,2.24,6.58,2.24,16.71-.7,16.71,6.73S983.4,97,979.2,97H892.09c-5.54,0-7.28-.29-7.28-3.67,0-2.9-2.86-2.8-6.62-2.8"/>
        <path d="M851.29,81.22c-.31-6.55-2.83-20.2.6-23.6s3.45-2.86,3.45-2.09.62,28.48.62,33c0,5.54-.11,7.67-2,8.13-1.35.33-1.69-.49-1.8-2.82s-.88-12.61-.88-12.61"/>
        <path d="M761.6,97c5.17,0,7,.22,9.24-2.9s2.47-3.45,3.24-3.45,1,.31,3.24,3.45,4.07,2.9,9.24,2.9h49.82c6.38,0,8.36-3.94,8.48-8.44s-.62-32.29-.62-33,0-1.3-3.45,2.09-.91,17.05-.61,23.6-.13,8.3-6,8.3H783.83c-1.75,0-6.26.18-6.26-1.39s2.88-1.9,4.69-2.16,2.75-.36,2.75-1.69S782.15,77,774.08,77s-10.93,5.91-10.93,7.25.94,1.44,2.74,1.69,4.69.57,4.69,2.16-4.51,1.39-6.25,1.39H719c-5.83,0-6.28-1.75-6-8.3s2-20.2-1.39-23.6-3.45-2.86-3.45-2.09-.74,28.49-.63,33,2.11,8.44,8.5,8.44Zm12.48-16.49c2.42,0,4.7,1.71,4.7,2.15s-.51.63-1,.89-1.59.75-2.39,1.27a4,4,0,0,1-1.31.62,4.05,4.05,0,0,1-1.32-.62c-.81-.52-1.87-1-2.39-1.27s-1-.47-1-.89,2.29-2.15,4.71-2.15"/>
        <path d="M622.92,67.34a.67.67,0,0,0,.47.2.78.78,0,0,0,.5-.2L626.28,65a.67.67,0,0,0,.19-.47.66.66,0,0,0-.2-.48l-2.38-2.35v0a.71.71,0,0,0-.49-.18.64.64,0,0,0-.48.2L620.52,64a.66.66,0,0,0-.2.48.7.7,0,0,0,.2.48Z"/>
        <path d="M623,74.27a.7.7,0,0,0,.47.19.71.71,0,0,0,.5-.2l2.39-2.36a.69.69,0,0,0,.2-.47.68.68,0,0,0-.2-.48L624,68.6h0a.69.69,0,0,0-.49-.21.67.67,0,0,0-.48.21L620.63,71a.64.64,0,0,0-.2.48.66.66,0,0,0,.2.48Z"/>
        <path d="M638.84,89.51c-5,0-6.81-.9-6.81-6.13V73c0-2.3-.85-3.18-2.16-1.38s-2.26,2.65-2.26,3.72-.41,1.44-1.84,2-10.3,3.91-10.3,10.79c0,2.15,1.91,2.36,5.47,2.36,3.77,0,6.62-.09,6.62,2.8,0,3.37,1.75,3.67,7.29,3.67h21.91V89.51Zm-11.28-5.28c0,1.3-1.22,1.39-2.51,1.39s-4.33-.35-2.66-1.94,3.13-2.11,4.08-2.11,1.09.52,1.09,1.21v1.45Z"/>
        <path d="M702.81,90.64a7.06,7.06,0,0,1-7.1,7,7.15,7.15,0,0,1-4.24-1.39c-2.14-1.54-3.47.7-8.17.7H654.59V89.52h30.68A5.06,5.06,0,0,0,689.65,87l0-.05a7.12,7.12,0,0,1,13.14,3.68m-7.1,3.23a3.23,3.23,0,1,0-3.27-3.23,3.25,3.25,0,0,0,3.27,3.23"/>
        <rect class="cls-5" x="460.51" y="51.7" width="119.78" height="59.86"/>
        <rect class="cls-4" x="460.51" y="111.56" width="119.78" height="59.88"/>
        <rect class="cls-2" x="481.4" y="107.92" width="77.93" height="7.29"/>
        <path d="M646.24,133.69a34.12,34.12,0,0,0-13.68-3.39c-6.31,0-9.47,1.43-9.47,4,0,7.42,28.15,1.46,28.15,17.24,0,6.54-5.79,11.61-17.36,11.61a34.4,34.4,0,0,1-18.41-5.07l2.55-5.88a30.12,30.12,0,0,0,15.9,4.56c6.86,0,10.55-2.1,10.55-5.22,0-8.09-28.15-2-28.15-16.8,0-6.41,5.73-10.81,16.1-10.81a33.64,33.64,0,0,1,16.4,4.1Z"/>
        <path d="M673,130.07c-8.17,0-13.78,5.91-13.78,13.45,0,7.75,5.35,13.47,13.78,13.47s13.71-5.79,13.71-13.47-5.3-13.45-13.71-13.45m0,33.26c-11.23,0-20.55-7.93-20.55-19.81s9.32-19.85,20.55-19.85,20.49,8.11,20.49,19.85-9.17,19.81-20.49,19.81"/>
        <path d="M716.53,163.29c-11.81,0-20.7-7.93-20.7-19.82,0-11.69,9-19.81,20.7-19.81A25.1,25.1,0,0,1,733,129.3l-3.51,5.47a19.45,19.45,0,0,0-12.74-4.58c-8.61,0-14,5.78-14,13.28,0,7.74,5.41,13.31,14.06,13.31a19.89,19.89,0,0,0,12.92-4.49l3.5,5.53a26.14,26.14,0,0,1-16.7,5.47"/>
        <rect x="736.46" y="124.85" width="6.55" height="37.43"/>
        <polygon points="748.94 162.3 748.94 124.84 781.09 124.84 781.09 131.05 755.49 131.05 755.49 140.12 775.39 140.12 775.39 146.3 755.49 146.3 755.49 156.1 782.2 156.1 782.2 162.3 748.94 162.3"/>
        <polygon points="805.13 131 805.13 162.3 798.58 162.3 798.58 131 784.19 131 784.19 124.84 819.49 124.84 819.49 131 805.13 131"/>
        <polygon points="822.17 162.3 822.17 124.84 854.27 124.84 854.27 131.05 828.71 131.05 828.71 140.12 848.62 140.12 848.62 146.3 828.71 146.3 828.71 156.1 855.39 156.1 855.39 162.3 822.17 162.3"/>
        <path d="M892,156.75a22.89,22.89,0,0,0,10-2.28V143.61h6.39v14.55a29.77,29.77,0,0,1-16.73,5.13c-11.79,0-20.69-7.94-20.69-19.82,0-11.69,9-19.81,20.69-19.81a25.07,25.07,0,0,1,16.4,5.57l-3.45,5.52a19.23,19.23,0,0,0-12.75-4.46c-8.61-.22-14,5.68-14,13.18,0,7.73,5.39,13.28,14.08,13.28"/>
        <polygon points="912.38 162.28 912.38 124.84 944.58 124.84 944.58 131.05 918.94 131.05 918.94 140.12 938.86 140.12 938.86 146.3 918.94 146.3 918.94 156.1 945.71 156.1 945.71 162.28 912.38 162.28"/>
        <path d="M955.3,162.28h-6.38V124.84h6.68l23,28.21.18,0c-.41-7.09-.44-12.84-.44-18.41v-9.76h6.4v37.44h-6.64l-22.91-28.21-.1,0c.22,5.55.22,15.26.22,18.4Z"/>
        <polygon points="989.04 162.28 989.04 124.84 1021.17 124.84 1021.17 131.05 995.56 131.05 995.56 140.12 1015.48 140.12 1015.48 146.3 995.56 146.3 995.56 156.1 1022.29 156.1 1022.29 162.28 989.04 162.28"/>
        <path d="M1047,142.25c4.1,0,6.41-2.23,6.41-5.49,0-3.55-2.06-5.71-5.71-5.71h-16.13v11.2Zm-4.88,6.24h-10.55v13.78h-6.56V124.85h22.69c7.54,0,12.2,4.89,12.2,11.91,0,6.71-4.57,10.7-10.15,11.54l10.51,14h-8.16Z"/>
        <path d="M1075,147.11h13.6l-6.8-15.19Zm-2.77,6.07-4,9.1h-7.07l17.18-37.44h6.86l17.19,37.44h-7l-4.07-9.1Z"/>
        <polygon points="1103.34 162.28 1103.34 124.84 1109.87 124.84 1109.87 156.1 1133.45 156.1 1133.45 162.28 1103.34 162.28"/>
        <polygon points="1135.51 162.28 1135.51 124.84 1167.64 124.84 1167.64 131.05 1142.06 131.05 1142.06 140.12 1161.95 140.12 1161.95 146.3 1142.06 146.3 1142.06 156.1 1168.77 156.1 1168.77 162.28 1135.51 162.28"/>
      </g>
    </g>
  </g>
</svg>
